<?xml version="1.0" standalone="no"?>
<!DOCTYPE svg PUBLIC "-//W3C//DTD SVG 20010904//EN"
 "http://www.w3.org/TR/2001/REC-SVG-20010904/DTD/svg10.dtd">
<svg version="1.0" xmlns="http://www.w3.org/2000/svg"
 width="542.000000pt" height="542.000000pt" viewBox="0 0 542.000000 542.000000"
 preserveAspectRatio="xMidYMid meet">
<metadata>
Created by potrace 1.11, written by Peter Selinger 2001-2013
</metadata>
<g transform="translate(0.000000,542.000000) scale(0.100000,-0.100000)"
fill="#000000" stroke="none">
<path d="M2498 5415 c-2 -2 -34 -6 -73 -9 -38 -4 -81 -8 -95 -11 -14 -2 -41
-6 -60 -9 -37 -6 -118 -21 -160 -31 -14 -3 -36 -8 -50 -11 -78 -15 -305 -92
-425 -144 -184 -79 -446 -232 -572 -334 -10 -8 -47 -38 -83 -67 -111 -89 -331
-319 -425 -444 -196 -260 -339 -535 -430 -825 -27 -85 -71 -257 -79 -310 -3
-19 -7 -44 -10 -55 -37 -185 -43 -608 -11 -835 27 -195 103 -478 170 -635 80
-186 146 -313 242 -460 207 -316 467 -578 785 -788 297 -196 692 -354 1008
-402 19 -3 48 -8 63 -11 162 -33 551 -38 772 -9 200 26 429 85 625 161 614
240 1114 688 1422 1274 118 224 230 553 262 765 7 45 14 85 21 130 25 151 25
601 0 720 -2 11 -7 37 -10 59 -54 385 -229 810 -476 1158 -34 48 -69 95 -78
105 -9 10 -38 45 -66 78 -70 83 -208 221 -285 286 -36 30 -67 57 -70 60 -17
20 -211 155 -295 206 -357 215 -736 341 -1145 382 -77 8 -465 12 -472 6z"/>
</g>
</svg>
