<?xml version="1.0" standalone="no"?>
<!DOCTYPE svg PUBLIC "-//W3C//DTD SVG 20010904//EN"
 "http://www.w3.org/TR/2001/REC-SVG-20010904/DTD/svg10.dtd">
<svg version="1.0" xmlns="http://www.w3.org/2000/svg"
 width="132.000000pt" height="132.000000pt" viewBox="0 0 132.000000 132.000000"
 preserveAspectRatio="xMidYMid meet">
<metadata>
Created by potrace 1.11, written by Peter Selinger 2001-2013
</metadata>
<g transform="translate(0.000000,132.000000) scale(0.100000,-0.100000)"
fill="#000000" stroke="none">
<path d="M825 1069 c-94 -9 -145 -29 -233 -92 l-39 -27 -64 16 c-253 65 -508
-155 -485 -419 11 -126 60 -198 173 -256 89 -45 165 -39 300 25 l74 34 50 -40
c62 -49 143 -75 211 -67 34 4 95 30 199 84 258 134 289 170 297 342 4 91 2
103 -22 156 -14 31 -40 74 -58 94 -40 46 -121 108 -167 127 -46 20 -159 31
-236 23z"/>
</g>
</svg>
