<?xml version="1.0" encoding="UTF-8"?>
<svg width="12px" height="12px" viewBox="0 0 12 12" version="1.1" xmlns="http://www.w3.org/2000/svg" xmlns:xlink="http://www.w3.org/1999/xlink">
    <!-- Generator: Sketch 63 (92445) - https://sketch.com -->
    <title>编组 10</title>
    <desc>Created with Sketch.</desc>
    <g id="页面-1" stroke="none" stroke-width="1" fill="none" fill-rule="evenodd">
        <g id="桌面端-HD" transform="translate(-1383.000000, -204.000000)" fill="#000000">
            <g id="编组-10" transform="translate(1381.000000, 202.000000)">
                <g id="圆圈备份" fill-rule="nonzero">
                    <rect id="矩形" opacity="0" x="0" y="0" width="16" height="16"></rect>
                    <path d="M8.00005276,3.49414175 C7.38945717,3.49414175 6.80617388,3.61208126 6.24968561,3.85033976 C5.69319735,4.08859826 5.2139905,4.41055242 4.81165124,4.81185712 C4.40920853,5.21533438 4.08849583,5.6939205 3.8505477,6.24978803 C3.61208229,6.80772467 3.49300477,7.38935267 3.49300477,8.00098282 C3.49300477,8.61054386 3.6120823,9.19424098 3.8505477,9.75010851 C4.08849584,10.3081486 4.40920854,10.7867347 4.81165124,11.190212 C5.2139905,11.5916201 5.69319734,11.9112983 6.24968561,12.1516259 C6.80296294,12.3877963 7.39847892,12.5090185 8.00005276,12.5079347 C8.61044146,12.5079347 9.19372475,12.3877118 9.750213,12.1516259 C10.3067013,11.9112983 10.7859081,11.5915167 11.1882474,11.190212 C11.5906901,10.7867347 11.9114028,10.3081486 12.1493509,9.75010851 C12.3882301,9.19424098 12.5068938,8.61054387 12.5068938,8.00098282 C12.5068938,7.38935267 12.3882301,6.80772467 12.1493509,6.24978803 C11.9114028,5.6939205 11.5906901,5.21523093 11.1882474,4.81175367 C10.7859081,4.41055243 10.3067013,4.08859826 9.750213,3.85033976 C9.19372475,3.61218472 8.610338,3.49414175 7.99994931,3.49414175 M7.99994931,2.20642853 C8.7843505,2.20642853 9.53523204,2.35881878 10.2503179,2.66577188 C10.965921,2.97262151 11.5819998,3.3846856 12.0983472,3.9018607 C12.6151085,4.41696667 13.0267588,5.03294198 13.3331946,5.74968312 C13.6397339,6.46435516 13.7931587,7.21554707 13.7933675,7.99881026 C13.7939863,8.78434946 13.6399408,9.53554137 13.3331946,10.2502134 C13.0265519,10.9669546 12.6149016,11.5829299 12.0983472,12.0979324 C11.5822067,12.6152109 10.9665418,13.027275 10.2503179,13.3342281 C9.53430094,13.6389052 8.78424704,13.793468 8.00005276,13.793468 C7.21585849,13.793468 6.46580459,13.6389052 5.74968417,13.3341247 C5.03325338,13.027275 4.41738154,12.6152109 3.90144791,12.0980358 C3.38479009,11.5829299 2.97324329,10.9669546 2.66660056,10.25011 C2.35985439,9.53554138 2.20580883,8.78434947 2.20642769,7.99891372 C2.20663647,7.21554708 2.36006129,6.46435518 2.66660056,5.74978658 C2.97303637,5.03283852 3.38458319,4.41696667 3.90144791,3.9018607 C4.4176919,3.38458214 5.03387411,2.97262151 5.74968417,2.66566842 C6.46466657,2.35881878 7.21544466,2.20642853 7.99994931,2.20642853" id="形状"></path>
                </g>
                <circle id="椭圆形" cx="8" cy="8" r="5"></circle>
            </g>
        </g>
    </g>
</svg>