<?xml version="1.0" encoding="utf-8"?>
<!-- Generator: Adobe Illustrator 24.1.0, SVG Export Plug-In . SVG Version: 6.00 Build 0)  -->
<svg version="1.1" id="图层_1" xmlns="http://www.w3.org/2000/svg" xmlns:xlink="http://www.w3.org/1999/xlink" x="0px" y="0px"
	 viewBox="0 0 12 12" style="enable-background:new 0 0 12 12;" xml:space="preserve">
<style type="text/css">
	.st0{fill:#54AFED;fill-opacity:0;}
	.st1{fill:#54AFED;}
</style>
<desc>Created with Sketch.</desc>
<g id="页面-1">
	<g id="桌面端-HD" transform="translate(-1353.000000, -241.000000)">
		<g id="圆圈" transform="translate(1351.000000, 239.000000)">
			<rect id="矩形" class="st0" width="16" height="16"/>
			<path id="形状" class="st1" d="M8,3.5c-0.6,0-1.2,0.1-1.8,0.4c-0.6,0.2-1,0.6-1.4,1s-0.7,0.9-1,1.4C3.6,6.8,3.5,7.4,3.5,8
				s0.1,1.2,0.4,1.7c0.2,0.6,0.6,1,1,1.4s0.9,0.7,1.4,1c0.6,0.2,1.1,0.4,1.8,0.4c0.6,0,1.2-0.1,1.8-0.4c0.6-0.2,1-0.6,1.4-1
				s0.7-0.9,1-1.4c0.2-0.6,0.4-1.1,0.4-1.7s-0.1-1.2-0.4-1.8c-0.2-0.6-0.6-1-1-1.4s-0.9-0.7-1.4-1C9.2,3.6,8.6,3.5,8,3.5 M8,2.2
				c0.8,0,1.5,0.2,2.3,0.5C11,3,11.6,3.4,12.1,3.9S13,5,13.3,5.7s0.5,1.5,0.5,2.2c0,0.8-0.2,1.5-0.5,2.3c-0.3,0.7-0.7,1.3-1.2,1.8
				s-1.1,0.9-1.8,1.2S8.8,13.7,8,13.7s-1.5-0.2-2.3-0.5C5,13,4.4,12.6,3.9,12.1S3,11,2.7,10.3C2.4,9.5,2.2,8.8,2.2,8
				s0.2-1.5,0.5-2.2C3,5,3.4,4.4,3.9,3.9S5,3,5.7,2.7C6.5,2.4,7.2,2.2,8,2.2"/>
		</g>
	</g>
</g>
</svg>
